<?xml version="1.0" encoding="utf-8"?>
<!-- Generator: Adobe Illustrator 26.3.1, SVG Export Plug-In . SVG Version: 6.00 Build 0)  -->
<svg version="1.1" id="Layer_1" xmlns="http://www.w3.org/2000/svg" xmlns:xlink="http://www.w3.org/1999/xlink" x="0px" y="0px"
	 viewBox="0 0 300 115.94" style="enable-background:new 0 0 300 115.94;" xml:space="preserve">
<style type="text/css">
	.st0{fill:url(#SVGID_1_);}
	.st1{fill:url(#SVGID_00000103944111732993579730000015629207830688923036_);}
	.st2{fill:url(#SVGID_00000145018196241477949990000010960494177349200299_);}
	.st3{fill:url(#SVGID_00000000193248513386440160000008844886388291669658_);}
	.st4{fill:url(#SVGID_00000168794937894095054280000002649328694594704283_);}
	.st5{fill:url(#SVGID_00000072995872373514544520000010478282253769034905_);}
	.st6{fill:#4880A6;}
	.st7{fill:none;}
</style>
<g>
	
		<linearGradient id="SVGID_1_" gradientUnits="userSpaceOnUse" x1="92.5326" y1="-225.2804" x2="169.7413" y2="-225.2804" gradientTransform="matrix(0.9643 0.265 -0.265 0.9643 -105.2293 235.0735)">
		<stop  offset="0" style="stop-color:#4EB867"/>
		<stop  offset="1" style="stop-color:#58B2E3"/>
	</linearGradient>
	<path class="st0" d="M123.97,41.58c-0.3-0.21-1.33-0.91-2.99-2.04c-0.82-0.58-1.82-1.22-2.98-1.94c-1.16-0.72-2.45-1.56-3.93-2.39
		c-0.73-0.42-1.5-0.86-2.31-1.32c-0.81-0.45-1.67-0.88-2.55-1.34c-1.75-0.95-3.7-1.82-5.74-2.77c-4.12-1.8-8.82-3.52-13.94-4.76
		c-5.11-1.26-10.68-1.89-16.23-1.6c-2.77,0.2-5.52,0.61-8.16,1.33c-2.64,0.73-5.13,1.79-7.39,3.12c-4.54,2.66-8.02,6.51-10.18,11.05
		c-1.09,2.26-1.87,4.72-2.35,7.25c-0.35,2.25-0.29,4.43,0.09,6.5c0.38,2.07,1.1,4.04,2.09,5.91c1.01,1.86,2.34,3.6,3.84,5.18
		c0.71,0.81,1.6,1.53,2.39,2.27c0.92,0.68,1.74,1.38,2.71,1.98c0.88,0.65,1.94,1.16,2.87,1.73c1.06,0.47,1.99,1.03,3.07,1.41
		c2.03,0.91,4.24,1.49,6.35,2.05c2.19,0.45,4.32,0.83,6.48,0.98c4.29,0.36,8.45,0.14,12.3-0.41c3.84-0.5,7.4-1.48,10.51-2.41
		c1.56-0.53,3.01-0.95,4.35-1.52c1.34-0.53,2.56-0.95,3.66-1.49c1.1-0.49,2.08-0.93,2.93-1.31c0.85-0.43,1.57-0.8,2.15-1.1
		c1.16-0.58,1.78-0.89,1.78-0.89c-3.29,5.56-7.3,10.71-12.03,15.15c-3.69,0.82-7.37,1.22-11.04,1.52
		c-3.66,0.22-7.28,0.13-10.85-0.18c-7.07-0.79-13.96-2.67-19.83-6.03c-5.88-3.28-10.82-7.92-13.77-13.34
		c-1.48-2.7-2.46-5.58-2.87-8.53l-0.18-2.23c0.04-0.74-0.02-1.5,0.06-2.25l0.12-1.13c0.03-0.38,0.06-0.76,0.16-1.13l0.23-1.14
		c0.04-0.19,0.06-0.38,0.11-0.58l0.19-0.61c0.95-3.3,2.35-6.41,4.26-9.18c1.94-2.74,4.36-5.16,7.25-7.14
		c5.82-3.88,13.5-5.82,21.59-5.55c8.12,0.2,16.51,2.43,24.56,5.77C108.84,31.82,116.58,36.39,123.97,41.58z"/>
	
		<linearGradient id="SVGID_00000044148352425798677950000000059162072709495705_" gradientUnits="userSpaceOnUse" x1="87.185" y1="-221.8684" x2="157.9113" y2="-221.8684" gradientTransform="matrix(0.9643 0.265 -0.265 0.9643 -105.2293 235.0735)">
		<stop  offset="0" style="stop-color:#4EB867"/>
		<stop  offset="1" style="stop-color:#58B2E3"/>
	</linearGradient>
	<path style="fill:url(#SVGID_00000044148352425798677950000000059162072709495705_);" d="M101.66,27.43
		c-0.26-0.12-1.13-0.57-2.58-1.16c-0.72-0.3-1.57-0.69-2.56-1.09c-1-0.37-2.12-0.8-3.37-1.26c-2.52-0.82-5.52-1.8-8.99-2.46
		c-3.45-0.7-7.34-1.21-11.49-1.16c-4.14,0.05-8.53,0.67-12.78,2.09c-4.22,1.49-8.29,3.79-11.62,7.01
		c-3.36,3.18-5.97,7.23-7.67,11.73c-0.24,0.55-0.4,1.14-0.59,1.71c-0.17,0.57-0.41,1.16-0.5,1.71l-0.38,1.67
		c-0.13,0.55-0.15,1.13-0.24,1.68c-0.21,1.11-0.14,2.25-0.22,3.36l0.1,1.68c0.02,0.28,0.02,0.56,0.06,0.83l0.13,0.83
		c0.59,4.42,2.47,8.62,4.99,12.31c2.59,3.67,5.92,6.78,9.52,9.27c3.6,2.5,7.51,4.35,11.39,5.65c3.88,1.31,7.72,2.06,11.3,2.49
		c7.19,0.83,13.32,0.35,17.57-0.31c2.13-0.31,3.79-0.67,4.92-0.86c1.13-0.27,1.73-0.41,1.73-0.41C96.44,86.2,92,89.29,87.14,91.6
		c-6.7-0.16-13.29-1.28-19.52-3.32l-1.17-0.37c-0.39-0.14-0.76-0.29-1.14-0.44l-2.28-0.88l-2.21-1.02l-1.11-0.51l-1.06-0.58
		c-2.89-1.47-5.54-3.3-8.04-5.28c-2.52-1.97-4.72-4.27-6.68-6.7c-1.01-1.21-1.84-2.52-2.71-3.82l-1.14-2.02
		c-0.38-0.68-0.65-1.39-0.99-2.08c-2.46-5.61-3.38-11.82-2.09-17.75c0.1-0.75,0.34-1.48,0.55-2.21l0.31-1.1
		c0.12-0.37,0.27-0.74,0.41-1.11c0.28-0.74,0.53-1.5,0.88-2.2c0.34-0.71,0.62-1.46,1.02-2.14c1.45-2.8,3.26-5.39,5.42-7.66
		c4.3-4.56,10.03-7.79,16.37-9.32c6.35-1.53,13.22-1.53,19.96-0.29c3.37,0.63,6.74,1.46,10.03,2.63l1.24,0.41l1.22,0.47l2.45,0.95
		l2.41,1.06l1.21,0.53L101.66,27.43z"/>
	
		<linearGradient id="SVGID_00000005239520606474161500000010410999738157419156_" gradientUnits="userSpaceOnUse" x1="81.9169" y1="-218.556" x2="148.3194" y2="-218.556" gradientTransform="matrix(0.9643 0.265 -0.265 0.9643 -105.2293 235.0735)">
		<stop  offset="0" style="stop-color:#4EB867"/>
		<stop  offset="1" style="stop-color:#58B2E3"/>
	</linearGradient>
	<path style="fill:url(#SVGID_00000005239520606474161500000010410999738157419156_);" d="M81.93,18.47
		c-0.45-0.07-3.06-0.73-7.36-1.06c-4.26-0.34-10.34-0.32-17,1.8c-3.31,1.05-6.74,2.66-9.94,4.93c-3.2,2.27-6.19,5.19-8.57,8.71
		c-2.39,3.49-4.31,7.53-5.47,11.77c-1.17,4.24-1.34,8.78-0.63,13.15c0.71,4.38,2.31,8.59,4.51,12.36c2.21,3.78,5.01,7.11,8.08,9.93
		c3.07,2.82,6.41,5.13,9.74,7.02c3.33,1.9,6.72,3.23,9.85,4.37c6.36,2.09,11.92,2.89,15.8,3.24c1.95,0.16,3.48,0.2,4.52,0.26
		c0.52,0.04,0.92,0.01,1.19,0.02c0.27,0,0.41,0,0.41,0c-1.02,0.49-2.05,0.88-3.09,1.28c-1.05,0.38-2.11,0.8-3.19,1.14
		c-2.15,0.62-4.38,1.28-6.65,1.65c-5.84-1.38-11.51-3.45-16.78-6.25c-1.34-0.65-2.59-1.48-3.87-2.23c-1.28-0.76-2.46-1.67-3.69-2.5
		c-1.17-0.92-2.35-1.82-3.47-2.79c-1.08-1.02-2.23-1.96-3.22-3.06l-1.53-1.61l-1.42-1.71c-0.98-1.11-1.77-2.36-2.64-3.55
		c-1.59-2.48-3.06-5.04-4.1-7.8c-0.6-1.34-0.97-2.77-1.42-4.15c-0.2-0.7-0.33-1.43-0.5-2.14l-0.24-1.07
		c-0.06-0.36-0.1-0.72-0.15-1.08l-0.28-2.17l-0.09-2.18c-0.06-0.73-0.01-1.45,0.03-2.18c0.05-0.72,0.03-1.45,0.14-2.17
		c0.2-1.44,0.37-2.87,0.76-4.27c0.28-1.42,0.8-2.77,1.26-4.13c1.06-2.67,2.3-5.27,3.86-7.68c1.57-2.4,3.36-4.64,5.39-6.64
		c2.06-1.97,4.33-3.71,6.76-5.18c4.89-2.89,10.43-4.6,16.07-5.17c2.82-0.32,5.67-0.27,8.5-0.13C76.34,17.46,79.16,17.8,81.93,18.47z
		"/>
	
		<linearGradient id="SVGID_00000024695457827568172020000000608699414822112642_" gradientUnits="userSpaceOnUse" x1="77.2137" y1="-215.506" x2="133.2358" y2="-215.506" gradientTransform="matrix(0.9643 0.265 -0.265 0.9643 -105.2293 235.0735)">
		<stop  offset="0" style="stop-color:#4EB867"/>
		<stop  offset="1" style="stop-color:#58B2E3"/>
	</linearGradient>
	<path style="fill:url(#SVGID_00000024695457827568172020000000608699414822112642_);" d="M68.11,14.49
		c-0.19,0.01-0.85-0.02-1.92,0.06c-0.53,0.03-1.17,0.07-1.9,0.12c-0.73,0.06-1.55,0.19-2.46,0.3c-3.62,0.52-8.7,1.67-14.08,4.67
		c-2.67,1.49-5.41,3.42-7.95,5.83c-2.55,2.41-4.86,5.33-6.81,8.58c-1.94,3.27-3.55,6.83-4.61,10.8c-1.04,3.94-1.46,8.15-1.1,12.29
		c0.68,8.32,4.13,16.17,8.75,22.26c2.32,3.04,4.82,5.8,7.47,8.05c0.33,0.29,0.65,0.58,0.97,0.87c0.33,0.28,0.67,0.53,1,0.79
		c0.67,0.52,1.32,1.03,1.97,1.54c1.33,0.95,2.64,1.83,3.91,2.65c1.31,0.75,2.54,1.52,3.76,2.16c1.23,0.61,2.4,1.19,3.5,1.74
		c2.25,0.96,4.21,1.81,5.88,2.35c0.83,0.29,1.57,0.55,2.21,0.77c0.65,0.19,1.21,0.35,1.66,0.48c0.9,0.25,1.38,0.39,1.38,0.39
		l-2.87,0.24c-0.96,0.06-1.92,0.04-2.9,0.05c-0.97-0.01-1.96,0.02-2.94-0.06l-2.96-0.24c-9.51-4.75-18.11-11.61-24.16-20.48
		c-3.02-4.42-5.37-9.33-6.78-14.52c-1.4-5.18-1.87-10.65-1.15-15.95c0.7-5.3,2.62-10.35,5.11-14.7c1.22-2.23,2.72-4.3,4.29-6.28
		c1.66-1.92,3.39-3.78,5.36-5.36c1.91-1.65,4.04-3.01,6.2-4.26l1.67-0.85l0.83-0.42l0.86-0.36l1.71-0.72
		c0.58-0.22,1.17-0.4,1.75-0.6c2.33-0.81,4.74-1.3,7.13-1.71c1.21-0.13,2.41-0.3,3.61-0.38l1.81-0.08l0.9-0.04L68.11,14.49z"/>
	
		<linearGradient id="SVGID_00000054239519237066449030000000179579147168351363_" gradientUnits="userSpaceOnUse" x1="72.9504" y1="-213.1383" x2="118.3041" y2="-213.1383" gradientTransform="matrix(0.9643 0.265 -0.265 0.9643 -105.2293 235.0735)">
		<stop  offset="0" style="stop-color:#4EB867"/>
		<stop  offset="1" style="stop-color:#58B2E3"/>
	</linearGradient>
	<path style="fill:url(#SVGID_00000054239519237066449030000000179579147168351363_);" d="M55.49,13.27
		c-0.16,0.05-0.73,0.17-1.63,0.42c-0.45,0.14-0.98,0.31-1.59,0.51c-0.61,0.2-1.31,0.41-2.05,0.73c-3.01,1.13-7.13,3.12-11.33,6.53
		c-0.52,0.43-1.06,0.86-1.59,1.32c-0.51,0.48-1.03,0.98-1.55,1.48c-0.26,0.25-0.53,0.5-0.79,0.77c-0.25,0.27-0.5,0.55-0.75,0.82
		c-0.5,0.56-1.02,1.12-1.51,1.71c-1.94,2.39-3.76,5.07-5.33,8.01c-0.39,0.73-0.73,1.49-1.1,2.25l-0.54,1.15l-0.48,1.24
		c-0.32,0.83-0.65,1.67-0.94,2.53c-0.24,0.88-0.49,1.76-0.73,2.64c-0.87,3.56-1.38,7.34-1.23,11.1l0.03,1.41
		c0.03,0.47,0.08,0.93,0.13,1.4c0.1,0.93,0.18,1.87,0.32,2.8c0.35,1.82,0.65,3.68,1.2,5.42c0.95,3.56,2.41,6.86,4,9.92
		c3.28,6.08,7.45,11,11.38,14.68c3.96,3.68,7.62,6.3,10.28,7.9c0.66,0.41,1.25,0.78,1.77,1.1c0.52,0.32,0.97,0.54,1.34,0.74
		c0.73,0.39,1.12,0.61,1.12,0.61l-2.44-0.47c-0.81-0.19-1.61-0.41-2.42-0.63c-0.81-0.22-1.63-0.45-2.44-0.69l-2.41-0.86
		c-1.87-1.39-3.6-3.02-5.32-4.58l-2.47-2.52c-0.83-0.82-1.56-1.77-2.34-2.65c-3.02-3.62-5.7-7.56-7.79-11.85
		c-2.09-4.29-3.64-8.87-4.48-13.61c-0.84-4.73-0.96-9.61-0.27-14.34c0.21-1.18,0.45-2.35,0.68-3.51c0.25-1.16,0.64-2.28,0.97-3.41
		c0.3-1.14,0.81-2.2,1.23-3.28c0.23-0.53,0.43-1.09,0.68-1.59l0.75-1.48c2.01-3.93,4.53-7.63,7.53-10.87
		c3-3.25,6.48-6.03,10.24-8.19C47.37,15.74,51.41,14.2,55.49,13.27z"/>
	
		<linearGradient id="SVGID_00000087396956892343403260000002524883063876313008_" gradientUnits="userSpaceOnUse" x1="69.564" y1="-211.9628" x2="102.5201" y2="-211.9628" gradientTransform="matrix(0.9643 0.265 -0.265 0.9643 -105.2293 235.0735)">
		<stop  offset="0" style="stop-color:#4EB867"/>
		<stop  offset="1" style="stop-color:#58B2E3"/>
	</linearGradient>
	<path style="fill:url(#SVGID_00000087396956892343403260000002524883063876313008_);" d="M46.61,13.67
		c-0.13,0.06-0.59,0.28-1.32,0.62c-0.37,0.17-0.8,0.38-1.31,0.62c-0.5,0.25-1.04,0.57-1.65,0.91c-1.24,0.65-2.62,1.59-4.19,2.66
		c-0.76,0.57-1.55,1.2-2.38,1.86c-0.83,0.66-1.62,1.44-2.48,2.22c-3.35,3.2-6.74,7.47-9.38,12.49c-0.32,0.63-0.64,1.27-0.97,1.91
		c-0.16,0.33-0.33,0.63-0.48,0.98l-0.44,1.07c-0.58,1.43-1.19,2.89-1.6,4.43c-0.22,0.77-0.45,1.54-0.67,2.32
		c-0.16,0.79-0.32,1.59-0.48,2.38c-0.35,1.6-0.5,3.22-0.65,4.86l-0.1,1.23l-0.02,1.23c0,0.82,0,1.64-0.01,2.46
		c0.05,1.63,0.23,3.24,0.38,4.86c0.27,1.57,0.5,3.17,0.87,4.69c0.2,0.76,0.4,1.51,0.59,2.26c0.2,0.75,0.4,1.5,0.66,2.2
		c1.91,5.76,4.63,10.7,7.33,14.59c0.68,0.97,1.37,1.85,2.02,2.71c0.33,0.43,0.65,0.84,0.96,1.25c0.33,0.38,0.65,0.75,0.96,1.11
		c0.63,0.72,1.22,1.38,1.77,2c0.55,0.62,1.1,1.12,1.57,1.61c0.97,0.95,1.72,1.72,2.26,2.2c0.54,0.47,0.83,0.73,0.83,0.73
		c-1.29-0.58-2.52-1.32-3.77-2.04c-0.62-0.37-1.25-0.72-1.86-1.12l-1.81-1.24c-2.61-3.07-4.88-6.51-6.9-10.06
		c-0.95-1.84-1.92-3.62-2.68-5.56c-0.39-0.96-0.82-1.88-1.14-2.87l-0.97-2.95c-2.36-7.94-2.93-16.6-1.09-24.67
		c0.37-2.03,1.07-3.97,1.68-5.9c0.36-0.95,0.77-1.87,1.16-2.8l0.6-1.37l0.66-1.25c1.7-3.34,3.82-6.5,6.24-9.4
		C33.62,21.03,39.91,16.47,46.61,13.67z"/>
</g>
<g>
	<path class="st6" d="M85.22,58.17l-8.2-10.86v10.86h-3.97V40.75h3.6l8.23,10.97V40.75h3.97v17.43H85.22z"/>
	<path class="st6" d="M103.18,56.26c-2,1.54-3.89,2.17-6.23,2.17c-4.06,0-6.8-2.26-6.8-7c0-4.86,2.74-7.2,6.86-7.2
		c3.83,0,6.23,2.29,6.28,6.6c0,0.49-0.03,0.97-0.11,1.63h-9.26c0.29,2.03,1.43,2.91,3.2,2.91c1.83,0,3.17-0.37,4.89-1.37
		L103.18,56.26z M99.92,49.98c-0.14-2-1.2-2.94-2.91-2.94c-1.69,0-2.8,0.89-3.09,2.94H99.92z"/>
	<path class="st6" d="M113.62,56.43c-1.66,1.17-2.86,2-4.66,2c-2.94,0-4.43-1.63-4.43-5.31v-8.63h3.89v7.63
		c0,1.94,0.43,2.77,1.94,2.77c1.26,0,2.4-0.83,3.26-1.91v-8.48h3.92v13.68h-3.92V56.43z"/>
	<path class="st6" d="M123.53,47.06c0.86-1.77,2.11-2.83,3.8-2.83c0.49,0,0.94,0,1.71,0.09l-0.28,3.91
		c-0.69-0.06-1.14-0.06-1.63-0.06c-1.71,0-3,0.77-3.6,2.83v7.17h-3.91V44.49h3.91V47.06z"/>
	<path class="st6" d="M142.58,51.41c0,4.4-2.68,7.03-7.08,7.03c-4.34,0-7.03-2.63-7.03-7.03c0-4.51,2.68-7.17,7.05-7.17
		C139.89,44.23,142.58,46.89,142.58,51.41z M138.75,51.41c0-2.74-1.23-4.03-3.23-4.03c-2,0-3.23,1.29-3.23,4.03
		c0,2.63,1.2,3.88,3.2,3.88C137.52,55.29,138.75,54.03,138.75,51.41z"/>
	<path class="st6" d="M152.42,44.38v13.8h-3.97v-13.8h-5.6v-3.63h15.2v3.63H152.42z"/>
	<path class="st6" d="M168.98,56.26c-2,1.54-3.89,2.17-6.23,2.17c-4.06,0-6.8-2.26-6.8-7c0-4.86,2.74-7.2,6.86-7.2
		c3.83,0,6.23,2.29,6.28,6.6c0,0.49-0.03,0.97-0.11,1.63h-9.26c0.29,2.03,1.43,2.91,3.2,2.91c1.83,0,3.17-0.37,4.89-1.37
		L168.98,56.26z M165.73,49.98c-0.14-2-1.2-2.94-2.91-2.94c-1.69,0-2.8,0.89-3.09,2.94H165.73z"/>
	<path class="st6" d="M182.12,56.4c-1.91,1.46-3.51,2.03-6.08,2.03c-3.68,0-6.51-2.51-6.51-7.03c0-4.63,2.77-7.17,6.68-7.17
		c1.77,0,3.57,0.37,5.4,1.43l-1.11,2.52c-1.52-0.69-2.8-0.8-3.86-0.8c-2.03,0-3.26,1.51-3.26,4.03c0,2.43,1.2,3.88,3.2,3.88
		c1.43,0,2.8-0.34,4.31-1.2L182.12,56.4z"/>
	<path class="st6" d="M186.74,46.61c1.46-1.57,2.94-2.37,4.77-2.37c2.97,0,4.29,1.6,4.29,5.29v8.65h-3.92v-7.34
		c0-1.94-0.28-2.74-1.86-2.74c-1.26,0-2.34,0.74-3.28,1.91v8.17h-3.92V39.66h3.92V46.61z"/>
	<path class="st6" d="M214.35,58.17v-7h-7.54v7h-3.97V40.75h3.97v6.8h7.54v-6.8h3.97v17.43H214.35z"/>
	<path class="st6" d="M220.68,45.21c2.97-0.77,4.4-1,5.83-1c3.94,0,5.43,1.71,5.43,5.68v8.28h-3.83v-1.63
		c-1.14,1.06-2.43,1.89-4.23,1.89c-2.97,0-4.57-1.11-4.57-4.26c0-2.91,1.91-4.29,5.77-4.29h3.03c0-1.91-0.46-2.57-2.31-2.57
		c-1.09,0-2.57,0.2-4.54,0.66L220.68,45.21z M225.59,52.12c-1.77,0-2.68,0.26-2.68,1.6c0,1.2,0.8,1.89,2.2,1.89
		c1.2,0,2.2-0.6,3-1.46v-2.03H225.59z"/>
	<path class="st6" d="M237.67,47.06c0.86-1.77,2.11-2.83,3.8-2.83c0.49,0,0.94,0,1.71,0.09l-0.28,3.91
		c-0.69-0.06-1.14-0.06-1.63-0.06c-1.71,0-3,0.77-3.6,2.83v7.17h-3.91V44.49h3.91V47.06z"/>
	<path class="st6" d="M247.61,46.32c1.34-1.37,2.83-2.09,4.6-2.09c3.31,0,5.23,2.03,5.23,7c0,5.14-2.63,7.2-5.54,7.2
		c-2.2,0-3.11-0.74-4.28-1.89v1.63h-3.92V39.66h3.92V46.32z M247.61,53.46c0.83,1.06,1.71,1.77,3.05,1.77c1.66,0,2.94-1.14,2.94-4
		c0-2.71-1.06-3.74-2.77-3.74c-1.28,0-2.37,0.74-3.23,1.8V53.46z"/>
	<path class="st6" d="M272.1,51.41c0,4.4-2.68,7.03-7.08,7.03c-4.34,0-7.03-2.63-7.03-7.03c0-4.51,2.68-7.17,7.05-7.17
		C269.42,44.23,272.1,46.89,272.1,51.41z M268.28,51.41c0-2.74-1.23-4.03-3.23-4.03c-2,0-3.23,1.29-3.23,4.03
		c0,2.63,1.2,3.88,3.2,3.88C267.05,55.29,268.28,54.03,268.28,51.41z"/>
	<path class="st6" d="M277.13,47.06c0.86-1.77,2.11-2.83,3.8-2.83c0.49,0,0.94,0,1.71,0.09l-0.29,3.91
		c-0.69-0.06-1.14-0.06-1.63-0.06c-1.71,0-3,0.77-3.6,2.83v7.17h-3.92V44.49h3.92V47.06z"/>
</g>
<rect class="st7" width="300" height="117.15"/>
</svg>
